<?xml version="1.0" encoding="utf-8"?>
<!-- Generator: Adobe Illustrator 22.0.0, SVG Export Plug-In . SVG Version: 6.00 Build 0)  -->
<svg version="1.1" id="Calque_1" xmlns="http://www.w3.org/2000/svg" xmlns:xlink="http://www.w3.org/1999/xlink" x="0px" y="0px"
	 viewBox="0 0 432 432" style="enable-background:new 0 0 432 432;" xml:space="preserve">
<style type="text/css">
	.st0{fill:#754C24;}
	.st1{fill:#E6E6E6;}
	.st2{fill:#4D4D4D;}
	.st3{fill:#808080;}
	.st4{fill:#006837;}
	.st5{fill:#C1272D;}
	.st6{fill:#CCCCCC;}
	.st7{fill:#EAC675;}
	.st8{fill:#FBB03B;}
	.st9{fill:#FFFFFF;}
	.st10{fill:#8C6239;}
	.st11{fill:#A67C52;}
	.st12{fill:#A81621;}
	.st13{fill:#D6A14D;}
	.st14{fill:#C69C6D;}
	.st15{fill:#84D1A6;}
	.st16{fill:#8FAADB;}
	.st17{fill:#E0A6C2;}
	.st18{fill:#603813;}
	.st19{fill:#ED1C24;}
	.st20{fill:#4D9370;}
	.st21{fill:#7CC6E0;}
	.st22{fill:#2F7DA8;}
	.st23{fill:#F15A24;}
	.st24{fill:#009245;}
	.st25{fill:#662D91;}
	.st26{fill:#679CBA;}
	.st27{fill:#C77F2C;}
	.st28{fill:#831925;}
	.st29{fill:#E6E5E5;}
	.st30{fill:#AE5860;}
	.st31{fill:#C6B198;}
	.st32{fill:none;stroke:#000000;stroke-width:2;stroke-miterlimit:10;}
	.st33{fill:#AA3642;}
	.st34{fill:#901C25;}
	.st35{fill:#F1F1F1;}
	.st36{fill:#E42528;}
	.st37{fill:#736358;}
	.st38{fill:#F29222;}
	.st39{fill:#754D24;}
	.st40{fill:#094D84;}
	.st41{fill:#1660A7;}
	.st42{fill:#C59B6C;}
	.st43{fill:#A1272D;}
	.st44{fill:#036838;}
</style>
<g>
	<path class="st13" d="M262.5,107.7c0.9-0.7,1.9-0.8,3-0.6c0.5,0.1,1.1,0,1.5-0.2c2-0.7,4-0.6,6,0c0.6,0.2,1.2,0.6,1.9,1
		c2.4-0.7,4.4-0.1,6,2.1c1.3-0.7,2.6-0.9,4-0.7c1.2,0.2,2.3,0.7,3.2,1.6c0.8,0.7,1.1,1.6,0.7,2.6c-0.3,0.9-0.7,1.8-1.1,2.7
		c-0.4,0.9-0.9,1.9-1,2.9c-0.1,0.8-0.1,1.5,0.2,2.3c0.2,0.5,0.3,1.1,0.5,1.6c0.3,1,0.3,2,0,3c0,0.1,0,0.1,0,0.2
		c-0.7,1.9-0.3,3.6,0.7,5.3c0.6,1.2,1.3,2.4,1.8,3.6c0.4,1,1.1,1.5,2.2,1.7c2,0.4,3.9,1,5.9,1.1c0.3,0,0.6,0.1,0.9,0.2
		c0.8,0.2,1.4,0.7,1.6,1.6c0.2,0.7,0.2,1.4,0.3,2.1c0,0.3,0,0.7,0.1,1c0.1,0.9,0.2,1,1.1,1c0.4,0,0.8,0.1,1.2,0.1c1,0,1.6,0.5,2,1.5
		c1,2.8,1.9,5.6,2.2,8.6c0.4,3.9,1.5,7.5,3,11.1c1,2.5,2.1,5,2.6,7.6c0.3,1.7,0.6,3.3,0.9,5c0.2,1,0,1.9-0.4,2.8
		c-0.4,0.7-0.8,1.4-1.2,2.1c-2.5,3.5-5,7-7.6,10.5c-2,2.7-4.3,5.1-6.7,7.5c-2.9,2.9-6.1,5.5-9.3,8.1c-2,1.6-3.8,3.6-5.6,5.5
		c-0.2,0.2-0.3,0.4-0.4,0.6c-0.5,0.8-0.8,1.6-1.4,2.3c-1.3,1.5-2.6,3.1-4,4.4c-1.5,1.5-2.7,3.1-3.6,5c-0.6,1.3-1.3,2.5-2.2,3.6
		c-0.2,0.2-0.3,0.5-0.3,0.7c-0.3,1.7-0.7,3.4-1,5.1c-0.1,0.8-0.5,1.2-1.2,1.2c-0.5,0-0.9-0.1-1.4-0.3c-1.6-0.6-3.2-1.2-4.9-1.5
		c-0.7-0.1-1.4-0.1-2.1-0.1c-2.6-0.1-5.1-0.3-7.7-0.4c-1.4-0.1-2.9-0.1-4.3-0.1c-5.1,0.1-10.3,0.2-15.4,0.2
		c-6-0.1-12.1-0.3-18.1-0.4c-4.6-0.1-9.2-0.1-13.8,0.3c-3.8,0.3-7.6,0.6-11.4,0.9c-1.7,0.1-3.4,0.3-5.1,0.5
		c-2.9,0.3-5.8,0.3-8.7,0.2c-3.2-0.1-6.4-0.3-9.7-0.4c-2.2-0.1-4.4-0.6-6.6-1.1c-0.3-0.1-0.6-0.2-0.9-0.4c-0.4-0.2-0.6-0.5-0.6-0.9
		c-0.1-3.5-0.8-6.9-2.1-10.2c-0.9-2.3-1.5-4.6-1.9-7.1c-0.4-2.2-0.9-4.5-1.3-6.7c-0.1-0.4-0.3-0.7-0.5-1c-0.6-0.6-1.2-1.2-1.8-1.8
		c-1.7-1.7-2.9-3.6-3.4-6c-0.1-0.6-0.3-1.2-0.5-1.8c-0.3-0.9-0.6-1.7-1-2.6c-0.6-1.3-1.2-2.6-1.8-3.9c-0.4-0.9-0.9-1.7-1.5-2.4
		c-1.7-1.7-3-3.6-4.2-5.7c-0.7-1.2-0.9-2.6-1.1-3.9c-0.3-3.4-0.3-6.7-0.2-10.1c0.1-2.7,0.3-5.3,0.4-8c0.1-2.9-0.2-5.7-0.8-8.5
		c-0.3-1.2-0.3-2.5-0.4-3.8c-0.1-0.9,0.3-1.6,0.9-2.2c1.1-0.9,2.2-1.8,3.4-2.6c1.2-0.7,2.1-1.7,2.6-3c0.3-0.9,0.9-1.8,1.4-2.6
		c1-1.7,2-3.3,3.1-5c1.6-2.6,2.5-5.4,2.9-8.5c0.2-1.6,0-3.1-0.3-4.6c-0.3-1.9-0.8-3.7-1.1-5.5c-0.2-1.2-0.3-2.5-0.4-3.7
		c-0.3-2.1-0.9-4.1-1.8-6c-0.4-0.7-0.8-1.4-1.2-2.2c-0.2-0.4-0.5-0.9-0.7-1.3c-0.2-0.6,0-1,0.6-1.2c0.4-0.1,0.9-0.2,1.3,0
		c0.6,0.2,1.1,0.6,1.6,1.1c0.7,0.7,1.2,1.4,1.9,2.1c0.1,0.1,0.2,0.2,0.4,0.4c0.4-0.4,0.6-0.9,0.9-1.3c0.4-0.7,0.9-1.3,1.4-2
		c0.2-0.3,0.5-0.5,0.8-0.7c0.8-0.6,1.7-0.3,2,0.7c0.1,0.3,0.2,0.7,0.1,1.1c-0.2,1.4-0.4,2.8-0.6,4.1c-0.3,1.4-0.3,1.7-0.1,2.6
		c0.2-0.1,0.3-0.2,0.4-0.4c0.7-0.9,1.3-1.9,1.9-2.8c0.3-0.5,0.5-1,0.8-1.4c0.4-0.4,0.8-0.8,1.3-1.2c0.6-0.4,1.1-0.2,1.4,0.4
		c0.2,0.4,0.4,0.9,0.3,1.3c-0.1,1.1-0.3,2.1-0.4,3.2c-0.2,1-0.4,2.1-0.7,3.1c0,0,0,0,0.1,0.2c0.3-0.6,0.6-1.1,0.9-1.6
		c0.3-0.5,0.6-1.1,1-1.6c0.3-0.4,0.6-0.7,1.2-0.6c0.5,0.1,0.9,0.5,1.1,1c0.2,0.7,0.2,1.4,0.1,2.1c-0.3,1-0.6,2-0.9,3
		c-0.3,1.1-0.8,2.3-1,3.4c-0.2,0.9-0.2,1.9-0.1,2.9c0.2,2.3,0,4.4-0.6,6.6c-0.5,1.8-0.7,3.6-0.6,5.5c0.1,1.8,0.1,3.6,0.1,5.4
		c0.1,1.9-0.3,3.8-0.6,5.7c-0.1,0.8-0.2,1.6-0.3,2.4c0.1,0.1,0.2,0.2,0.3,0.2c0.8,0.4,1.1,1,1,1.8c0,0.7-0.1,1.5-0.2,2.2
		c-0.2,2.3-0.3,4.7-0.5,7c-0.1,1.2-0.1,2.5-0.2,3.7c0,0.9,0.1,1.8,0.4,2.6c0.6,1.6,1.1,3.1,1.6,4.7c0.8,2.5,2,4.8,3.2,7
		c0.7,1.3,1.3,2.6,1.6,4.1c0.1,0.6,0.4,1.1,0.9,1.6c1.3,1.2,2.2,2.6,3.1,4.1c0.4,0.7,0.8,1.3,1.3,2c0.3,0.4,0.6,0.7,0.9,1
		c0.6,0.5,1.2,0.7,2,0.4c0.2-0.1,0.5-0.2,0.8-0.3c1.2-0.5,2.4-0.4,3.7,0c3.2,1.1,6.3,2.1,9.5,3.2c1.6,0.5,3.1,1.3,4.6,1.9
		c1.2,0.5,2.1,1.4,2.6,2.7c0.3,0.8,0.8,1.3,1.7,1.5c0.8,0.2,1.6,0.1,2.2-0.5c0.5-0.5,1.1-1,1.6-1.6c0.4-0.4,0.7-0.9,0.7-1.5
		c0-0.8,0-1.5,0-2.3c0-1.8-0.3-3.5-0.8-5.2c-1.5-0.2-2.2-1.2-2.8-2.5c-0.6-1.4-1-2.8-1.1-4.3c-0.1-1.1,0.2-2.1,1-2.9
		c0.4-0.4,0.6-0.9,0.6-1.5c0.1-1.4,0.2-2.8,0.3-4.2c0.3-4.2,1.3-8.2,3.4-11.8c1.4-2.6,3.4-4.7,6.2-6c1.2-0.6,2.5-0.9,3.7-1.2
		c0.3-0.1,0.7-0.2,1-0.4c2.3-2.3,5.2-3.3,8.2-3.9c1.8-0.4,3.6-0.3,5.5-0.1c1,0.1,2,0,3,0.1c0.4,0,0.8,0,0.9,0.4
		c0.2,0.4,0,0.6-0.3,0.9c-0.1,0.1-0.2,0.3-0.3,0.5c1.1-0.4,2-0.9,2.9-1.6c0.3-0.3,0.7-0.6,1-0.8c0.3-0.2,0.6-0.3,0.9,0
		c0.3,0.2,0.2,0.5,0.1,0.8c-0.4,1.3-1,2.5-1.7,3.7c-0.1,0.2-0.2,0.4-0.3,0.7c0.4-0.1,0.9-0.3,1.3-0.5c0.6-0.3,1.1-0.6,1.7-1
		c0.3-0.2,0.5-0.3,0.8-0.1c0.3,0.3,0.2,0.6,0.1,0.8c-0.3,0.5-0.6,0.9-0.9,1.5c0.2,0,0.3,0.1,0.5,0.1c2.8,0,4.7,1.6,6.1,3.9
		c0.2,0.3,0.3,0.6,0,0.9c-0.3,0.3-0.6,0.2-0.9,0c-0.2-0.1-0.5-0.3-0.8-0.5c0.6,1.1,1.2,2,1.8,3c0.5,0.9,0.8,1.8,1.2,2.7
		c0.1,0.2,0.2,0.4,0.2,0.6c0,0.2-0.1,0.4-0.2,0.7c-0.2-0.1-0.4-0.1-0.6-0.2c-0.3-0.2-0.5-0.4-0.8-0.7c0,0.2,0,0.3,0,0.4
		c1.1,4.1,0.7,8.1-0.8,12c-0.1,0.4-0.3,0.7-0.4,1.1c-0.3,0.8-0.4,1.7-0.2,2.6c0.7,2.9,0.1,5.6-1.5,8c-0.8,1.2-2,1.8-3.4,1.9
		c-0.7,0-1.1,0.3-1.4,0.8c-0.2,0.4-0.5,0.8-0.7,1.2c-0.8,1.5-1.5,3.1-2.2,4.7c-0.3,0.6-0.6,1.2-0.6,2.1c0.4-0.5,0.8-0.8,1.1-1.2
		c1-1.1,2-2.3,3-3.5c2-2.3,4.5-3.7,7.3-4.6c2.8-0.8,5.5-1.6,8.3-2.3c1.8-0.4,3.6-0.6,5.4-0.4c1.7,0.2,3.2,1,4.5,2.1
		c0.3,0.3,0.5,0.8,0.8,1.2c0.2,0.4,0.3,0.7,0.5,1.1c1.2-0.2,2.1-0.7,2.9-1.5c1.2-1.3,2.7-2.1,4.5-2.4c0.8-0.2,1.7-0.4,2.5-0.6
		c0.8-0.2,1.4-0.6,1.9-1.3c0.3-0.4,0.6-0.8,0.9-1.3c1.3-1.7,2.9-2.9,4.9-3.6c1-0.4,1.6-0.9,1.6-2.1c0-1.9,0.9-3.6,2-5.2
		c0.4-0.5,0.9-1,1-1.6c0.1-0.5-0.4-1.1-0.6-1.7c-0.8-1.8-1.1-3.7-1.3-5.6c-0.3-2.8-1-5.5-1.8-8.1c-0.2-0.5-0.3-1-0.4-1.4
		c-0.3-1.1-0.7-2.2-1.4-3.1c-1-1.3-0.7-2.5,0-3.4c0.4-0.5,0.4-0.9,0.2-1.4c-0.6-1.8-1.1-3.6-1.6-5.4c-0.2-0.9-0.4-1.8-0.6-2.7
		c-0.2-1.1-0.7-2-1.4-2.9c-2.1-2.6-4.6-4.7-7.2-6.7c-2.5-1.9-3.9-4.5-4.5-7.6c-0.7-3.6-1.8-7.1-3.3-10.5c-0.4-0.9-0.4-1.1-0.1-1.9
		c-0.2-0.1-0.4-0.3-0.5-0.5c-7.4-5.6-14.8-11.3-22.2-16.9c-5.9-4.5-11.9-9.1-17.7-13.7c-2.9-2.2-5.6-4.7-8.4-6.9
		c-2.2-1.7-4.4-3.4-6.6-5.1c-0.2-0.1-0.4-0.3-0.5-0.4c-0.3-0.3-0.3-0.6-0.1-0.9c0.3-0.3,0.5-0.2,0.8,0c2,1.4,4,2.8,5.9,4.3
		c8.7,7,17.6,13.8,26.5,20.5c5,3.8,10,7.6,15.1,11.4C256.6,103.4,259.5,105.5,262.5,107.7z"/>
	<g>
		<g>
			<path class="st5" d="M221.2,218.1C221.2,218.1,221.2,218.1,221.2,218.1l-10.4,0c0,0,0,0,0,0c-16.9-11.6-96.2,10.4-113.4-5.6
				c0,29.1,0,138.6,0,154.7c32.8,0,84.9-19.4,113.4-2.2c0,0,0,0,0,0h10.4c0,0,0,0,0,0c28.5-17.1,80.6,2.2,113.4,2.2
				c0-16,0-125.6,0-154.7C317.5,228.6,238.2,206.6,221.2,218.1z"/>
			<rect x="210.8" y="218.1" class="st12" width="10.4" height="146.8"/>
		</g>
		<g>
			<path class="st13" d="M238.3,281.3c-0.1-1.3-0.3-2.5-0.4-3.8c-0.1-2-0.1-4,0.2-6c0.4-2.3,1.1-4.4,1.7-6.6c0-0.2,0.1-0.3,0.2-0.5
				c0.1-0.3,0.3-0.4,0.5-0.3c0.2,0,0.3,0.2,0.2,0.5c0,0.2-0.1,0.5-0.2,0.7c-0.4,1.2-0.7,2.5-1.1,3.7c-0.4,1.4-0.7,2.9-0.8,4.3
				c-0.2,3-0.1,5.9,0.6,8.8c0.5,2.4,1.3,4.6,2.6,6.7c0.6,1,1.1,2,1.8,3c1.7,2.7,3.7,5.2,6,7.4c1,1,2.2,2,3.3,2.9
				c0,0,0.1,0.1,0.2,0.1c0-0.1-0.1-0.2-0.1-0.2c-0.8-1.3-1.6-2.6-2.6-3.8c-0.3-0.4-0.7-0.7-1-1.1c-0.4-0.4-0.8-0.6-1.3-0.8
				c-0.1,0-0.2-0.1-0.3-0.1c-0.3-0.1-0.4-0.3-0.2-0.6c0,0,0-0.1,0.1-0.1c0.7-1.4,0.4-2.6-0.4-3.8c-0.2-0.3-0.5-0.6-0.9-0.8
				c-0.3-0.2-0.4-0.4-0.1-0.6c0.7-0.8,0.9-1.9,1-2.9c0.1-1.1-0.1-2.1-0.3-3.2c0-0.2-0.1-0.4-0.1-0.7c0-0.3,0.1-0.4,0.2-0.5
				c0.2-0.1,0.3,0,0.5,0.2c0.4,0.6,0.7,1.1,1.1,1.7c0.4,0.6,0.8,1.2,1.2,1.7c0.6,0.8,1.4,1.4,2.4,1.8c0.4,0.1,0.5,0.3,0.4,0.7
				c-0.1,0.7-0.3,1.4-0.4,2.2c-0.1,1.2-0.1,2.5,0.3,3.6c0.3,0.9,0.9,1.5,1.8,1.8c0.8,0.2,0.8,0.3,0.6,1.1c-0.2,1.1-0.5,2.2-0.5,3.3
				c0,0.6,0,1.3,0.2,1.9c0,0.1,0.1,0.2,0.1,0.3c0.3,0.3,0.6,0.7,1,1c4.3,2.9,8.9,5.2,13.9,6.7c0.4,0.1,0.9,0.2,1.3,0.3
				c0,0,0-0.1,0-0.1c-0.2-0.1-0.4-0.2-0.6-0.3c-0.7-0.2-1.4-0.4-2.1-0.6c-0.3-0.1-0.7-0.2-1-0.3c-0.4-0.1-0.4-0.3-0.4-0.6
				c0.1-1,0-1.9-0.2-2.9c-0.1-0.5,0.2-0.7,0.6-0.6c0.1,0,0.2,0.1,0.2,0.1c0.9,0.4,1.8,0.6,2.7,0.5c0.7,0,0.8,0.1,0.7,0.8
				c-0.1,0.7-0.1,1.3,0.1,2c0.1,0.3,0.2,0.5,0.4,0.7c0.5,0.4,1.1,0.7,1.6,1.1c0.5,0.3,1,0.5,1.4,0.8c0,0,0.1,0,0.1,0.1
				c0.2,0.1,0.1,0.3-0.1,0.4c-0.2,0-0.3,0-0.5,0c-0.7,0-1.4-0.1-2.2-0.1c-0.5,0-1.1,0-1.6-0.1c-0.6-0.1-1.2-0.2-1.9-0.2
				c-0.6,0-1.2-0.1-1.8-0.1c-0.7,0-1.2,0.3-1.6,0.9c-0.2,0.2-0.3,0.5-0.3,0.8c0,0.1,0,0.3,0,0.4c-0.1,0.3-0.4,0.5-0.7,0.3
				c-0.2-0.1-0.3-0.2-0.4-0.3c-1-0.7-2.7-0.2-3.1,1c0,0.1-0.1,0.3-0.1,0.4c-0.1,0.5-0.4,0.7-0.8,0.4c-0.5-0.3-0.9-0.5-1.5-0.6
				c-1-0.1-2,0-2.9,0.4c-0.2,0.1-0.4,0.2-0.6,0.2c-0.3,0.1-0.5,0-0.6-0.2c-0.1-0.2,0-0.4,0.2-0.5c0.1,0,0.1-0.1,0.2-0.1
				c1-0.6,1.7-1.4,2.4-2.3c0.4-0.5,0.5-1,0.3-1.6c-0.1-0.5,0.1-0.8,0.7-0.6c0.5,0.1,1,0.2,1.5,0.1c0.7-0.1,1.3-0.4,1.6-1.1
				c0-0.1,0.1-0.2,0.1-0.2c0.2-0.2,0.4-0.3,0.6-0.2c0.1,0.1,0.3,0.1,0.4,0.2c0.5,0.5,1.2,0.7,1.8,0.8c0.6,0.1,1.3,0.2,2,0.2
				c-0.1,0-0.1-0.1-0.2-0.1c-1.1-0.5-2.3-1-3.4-1.5c-0.4-0.2-0.8-0.3-1.2-0.3c-1.6-0.1-3.2-0.1-4.8,0.2c-1.5,0.3-2.8,0.9-4,1.9
				c-0.3,0.2-0.5,0.4-0.8,0.6c-0.4,0.3-0.6,0.2-0.9-0.2c-0.3-0.4-0.6-0.8-0.9-1.1c-0.6-0.8-1.5-1.1-2.4-1.2c-0.6,0-1.2,0-1.8,0.2
				c-0.1,0-0.2,0.1-0.3,0.1c-0.4,0.1-0.6-0.1-0.7-0.4c-0.1-0.4-0.2-0.8-0.4-1.2c-0.2-0.4-0.3-0.9-0.6-1.3c-0.6-0.9-1.3-1.8-2.1-2.5
				c-0.6-0.5-1.1-1.1-1.7-1.6c-0.1-0.1-0.3-0.2-0.4-0.4c-0.1-0.2-0.2-0.4,0-0.5c0.1-0.2,0.3-0.2,0.5-0.1c0.1,0.1,0.2,0.1,0.3,0.2
				c0.7,0.6,1.5,1.2,2.4,1.6c0.4,0.2,0.8,0.3,1.3,0.5c0.4,0.1,0.8,0.1,1.3,0.1c0.8-0.1,1.5-0.2,2.2-0.6c0.4-0.2,0.7-0.1,1.1,0.2
				c0.3,0.3,0.7,0.6,1.1,0.9c1.4,1.1,2.9,1.3,4.6,0.7c0.2-0.1,0.3-0.1,0.6-0.2c-0.1-0.1-0.2-0.1-0.2-0.2c-3.1-2.2-5.9-4.8-8.2-7.9
				c-0.1-0.2-0.3-0.4-0.5-0.5c-0.9-0.8-1.9-1.6-2.8-2.4c-0.4-0.3-0.8-0.6-1.3-0.8c-1.5-0.7-3-0.9-4.6-0.4c-0.4,0.1-0.9,0.2-1.3,0.3
				c-0.4,0.1-0.7,0-0.8-0.4c-0.1-0.4-0.2-0.9-0.3-1.3c-0.4-1.4-1.2-2.4-2.5-3.1c-0.4-0.2-0.8-0.3-1.2-0.3c-0.1,0-0.2,0-0.4,0
				c-0.4-0.1-0.5-0.3-0.5-0.7c0-0.1,0-0.2,0.1-0.3c0.4-1.5,0.2-3-0.4-4.4c-0.2-0.5-0.5-0.9-0.7-1.4c-0.1-0.2-0.3-0.4,0-0.7
				c0.2-0.2,0.4-0.1,0.7,0c0.3,0.1,0.6,0.3,0.9,0.4c0.5,0.2,1,0.3,1.6-0.1c0.3-0.2,0.5-0.1,0.7,0.2c0.2,0.3,0.3,0.6,0.5,0.9
				c0.5,0.9,1,1.8,1.7,2.6c0.3,0.3,0.6,0.7,0.9,1c1,0.9,2.2,1.4,3.6,1.5c0.4,0,0.5,0,0.8,0.3c0-0.1-0.1-0.2-0.1-0.3
				c-0.7-1.7-1.4-3.4-2.1-5.2c-0.2-0.6-0.6-1.1-1.1-1.5c-0.5-0.4-1.1-0.8-1.7-1.2c-0.3-0.2-0.6-0.3-0.9-0.5
				c-0.7-0.4-0.7-0.4-0.5-1.2c0.1-0.4,0.2-0.8,0.2-1.3c0.1-1.1-0.2-2-0.7-3c-0.4-0.8-0.9-1.5-1.5-2.2c-0.2-0.2-0.3-0.4-0.5-0.6
				c-0.2-0.3-0.1-0.5,0.1-0.6c0.6-0.3,0.8-0.8,1.1-1.3c0.3-0.7,0.5-1.5,0.6-2.3c0.1-1.2,0.2-2.4,0.2-3.7c0-0.1,0-0.2,0-0.2
				c0-0.2,0.1-0.3,0.3-0.3c0.1,0,0.3,0.1,0.3,0.2c0.1,0.1,0.1,0.2,0.2,0.4c0.4,1.3,1.1,2.5,1.9,3.5c0.5,0.6,1,1.1,1.7,1.4
				c0.5,0.3,0.5,0.3,0.3,0.8c-0.1,0.4-0.2,0.9-0.2,1.3c0,0.7-0.1,1.4-0.1,2.1c0,0.4,0.1,0.8,0.3,1.1c0.1,0.2,0.2,0.5,0,0.7
				c-0.4,0.7-0.5,1.6-0.5,2.4c0,0.6,0.1,1.2,0.1,1.8c0.1,0.7,0.1,1.5,0.3,2.2C237.6,279.8,238,280.5,238.3,281.3z M254.4,304.3
				c0.7,0.9,1.4,1.8,2.4,2.5c0.1,0.1,0.3,0.2,0.5,0.2c0.6,0.1,1.2,0.2,1.8,0.3c0.1,0,0.2,0,0.3,0C257.6,306.3,256,305.3,254.4,304.3
				z M243.1,292.8c-1.2-2.1-2.3-4.1-3.5-6.1c0,0,0,0,0,0.1c0.6,1.9,1.3,3.6,2.5,5.2C242.4,292.3,242.7,292.5,243.1,292.8z"/>
			<path class="st13" d="M270.1,303.4c-0.1,0-0.2-0.1-0.4-0.1c-0.8-0.3-1.4-0.1-2,0.4c-0.3,0.3-0.7,0.7-0.9,1.1
				c-0.3,0.5-0.8,0.5-1.1,0.1c-0.5-0.7-1.2-1-2-1.1c-0.2,0-0.5,0-0.8,0c-0.2,0-0.3,0.1-0.5,0.1c-0.2,0-0.3-0.1-0.4-0.3
				c0-0.2,0-0.3,0.2-0.4c0.4-0.1,0.5-0.4,0.7-0.8c0.2-0.5,0.4-1,0.5-1.5c0-0.1,0-0.1,0-0.2c0.2-0.6,0.4-0.7,0.9-0.4
				c0.6,0.4,1.2,0.4,1.8,0.2c0.5-0.2,1-0.5,1.5-0.8c0.4-0.3,0.5-0.3,0.8,0c0.5,0.4,1.1,0.4,1.6,0.1c0.4-0.2,0.8-0.5,1.2-0.7
				c0.1-0.1,0.2-0.2,0.3-0.2c0.2,0,0.3,0,0.4,0.1c0.1,0.2,0.1,0.3-0.1,0.4c0,0-0.1,0.1-0.1,0.1c-0.9,0.8-1.2,1.7-1.3,2.9
				c0,0.2,0,0.4-0.1,0.6C270.5,303.3,270.4,303.4,270.1,303.4z"/>
			<path class="st13" d="M241.4,280.7c0.6,0,1,0.3,1.4,0.8c0.5,0.7,0.2,1.8-0.3,2.1c-0.7,0.5-1.6,0.5-2.2-0.2
				c-0.3-0.3-0.5-0.7-0.5-1.2C239.7,281.3,240.7,280.6,241.4,280.7z"/>
			<path class="st13" d="M244.7,300.5c-0.7,0.1-1.6-0.6-1.4-1.7c0-0.1,0-0.2,0.1-0.2c0.4-0.6,0.9-1.1,1.6-1.2
				c0.6-0.1,1.2,0.2,1.5,0.7c0.3,0.6,0.3,1.1-0.2,1.7C246,300.2,245.4,300.5,244.7,300.5z"/>
			<path class="st13" d="M260.6,299.8c0.5,0,0.9,0.2,1.2,0.6c0.2,0.3,0.3,0.7,0.2,1.1c-0.1,0.4-0.3,0.8-0.6,1.2
				c-0.4,0.4-0.9,0.5-1.5,0.3c-0.5-0.2-0.8-0.6-0.9-1.2c0-0.2,0-0.3,0-0.5C259,300.4,259.7,299.8,260.6,299.8z"/>
			<path class="st13" d="M242.7,295c0.1,0,0.2,0,0.3,0c1.1,0.2,1.5,1.2,0.9,2.1c-0.3,0.5-0.7,0.7-1.3,0.7c-0.9,0.1-1.6-0.7-1.5-1.6
				c0-0.3,0.2-0.5,0.4-0.7C241.9,295.2,242.2,295,242.7,295z"/>
			<path class="st13" d="M262.6,305c0,0.4-0.1,0.7-0.4,0.9c-0.4,0.3-0.7,0.5-1.2,0.5c-0.2,0-0.5-0.1-0.7-0.2
				c-0.4-0.4-0.7-0.8-0.8-1.4c0-0.3,0.1-0.6,0.3-0.8c0.6-0.5,1.7-0.6,2.2-0.1C262.4,304.2,262.6,304.6,262.6,305z"/>
			<path class="st13" d="M257.1,304.2c-0.7,0-1.1-0.4-1.3-1.2c-0.2-0.6,0.2-1.2,0.8-1.4c1-0.4,1.6,0,2,0.6c0.4,0.6,0.3,1.2-0.2,1.6
				C258,304,257.6,304.1,257.1,304.2z"/>
			<path class="st13" d="M239.2,279.2c0-0.6,0.5-1,1.1-1c0.6,0,1.2,0.5,1.2,1.1c0,0.6-0.6,1.1-1.3,1.2
				C239.6,280.5,239.2,279.9,239.2,279.2z"/>
			<path class="st13" d="M317.6,279c0.1-0.7,0.2-1.5,0.3-2.2c0.1-0.6,0.1-1.2,0.1-1.8c0-0.8-0.1-1.6-0.5-2.4c-0.1-0.3-0.1-0.5,0-0.7
				c0.2-0.4,0.3-0.7,0.3-1.1c0-0.7,0-1.4-0.1-2.1c0-0.4-0.1-0.9-0.2-1.3c-0.1-0.5-0.1-0.6,0.3-0.8c0.7-0.4,1.2-0.8,1.7-1.4
				c0.9-1.1,1.5-2.2,1.9-3.5c0-0.1,0.1-0.3,0.2-0.4c0.1-0.1,0.2-0.1,0.3-0.2c0.2,0,0.3,0.1,0.3,0.3c0,0.1,0,0.2,0,0.2
				c-0.1,1.2,0,2.5,0.2,3.7c0.1,0.8,0.2,1.6,0.6,2.3c0.2,0.5,0.5,1,1.1,1.3c0.3,0.1,0.3,0.4,0.1,0.6c-0.1,0.2-0.3,0.4-0.5,0.6
				c-0.6,0.7-1.1,1.4-1.5,2.2c-0.5,0.9-0.7,1.9-0.7,3c0,0.4,0.1,0.8,0.2,1.3c0.2,0.7,0.2,0.8-0.5,1.2c-0.3,0.2-0.6,0.3-0.9,0.5
				c-0.6,0.4-1.1,0.7-1.7,1.2c-0.5,0.4-0.8,0.9-1.1,1.5c-0.7,1.7-1.4,3.5-2.1,5.2c0,0.1,0,0.1-0.1,0.3c0.4-0.3,0.4-0.3,0.8-0.3
				c1.4-0.1,2.6-0.5,3.6-1.5c0.3-0.3,0.6-0.6,0.9-1c0.6-0.8,1.2-1.7,1.7-2.6c0.2-0.3,0.3-0.6,0.5-0.9c0.2-0.3,0.4-0.4,0.7-0.2
				c0.5,0.4,1,0.3,1.6,0.1c0.3-0.1,0.6-0.2,0.9-0.4c0.2-0.1,0.5-0.2,0.7,0c0.2,0.2,0.1,0.4,0,0.7c-0.2,0.5-0.5,0.9-0.7,1.4
				c-0.6,1.4-0.9,2.8-0.4,4.4c0,0.1,0.1,0.2,0.1,0.3c0,0.4-0.1,0.6-0.5,0.7c-0.1,0-0.2,0-0.4,0c-0.4,0-0.8,0.1-1.2,0.3
				c-1.2,0.7-2.1,1.7-2.5,3.1c-0.1,0.4-0.2,0.9-0.3,1.3c-0.1,0.4-0.4,0.5-0.8,0.4c-0.4-0.1-0.9-0.2-1.3-0.3
				c-1.6-0.4-3.1-0.2-4.6,0.4c-0.5,0.2-0.9,0.5-1.3,0.8c-0.9,0.8-1.9,1.6-2.8,2.4c-0.2,0.2-0.4,0.3-0.5,0.5c-2.4,3-5.1,5.6-8.2,7.9
				c-0.1,0.1-0.2,0.1-0.2,0.2c0.2,0.1,0.4,0.1,0.6,0.2c1.7,0.6,3.2,0.5,4.6-0.7c0.4-0.3,0.8-0.6,1.1-0.9c0.3-0.3,0.7-0.4,1.1-0.2
				c0.7,0.3,1.4,0.5,2.2,0.6c0.4,0.1,0.9,0.1,1.3-0.1c0.4-0.1,0.9-0.3,1.3-0.5c0.9-0.4,1.6-1,2.4-1.6c0.1-0.1,0.2-0.1,0.3-0.2
				c0.2-0.1,0.4-0.1,0.5,0.1c0.1,0.1,0.1,0.3,0,0.5c-0.1,0.1-0.2,0.2-0.4,0.4c-0.6,0.5-1.1,1-1.7,1.6c-0.8,0.7-1.5,1.6-2.1,2.5
				c-0.2,0.4-0.4,0.8-0.6,1.3c-0.1,0.4-0.2,0.8-0.4,1.2c-0.1,0.4-0.3,0.5-0.7,0.4c-0.1,0-0.2-0.1-0.3-0.1c-0.6-0.2-1.2-0.2-1.8-0.2
				c-1,0.1-1.8,0.5-2.4,1.2c-0.3,0.4-0.6,0.8-0.9,1.1c-0.3,0.4-0.5,0.4-0.9,0.2c-0.3-0.2-0.5-0.4-0.8-0.6c-1.2-1-2.5-1.5-4-1.9
				c-1.6-0.3-3.2-0.3-4.8-0.2c-0.4,0-0.8,0.2-1.2,0.3c-1.1,0.5-2.3,1-3.4,1.5c-0.1,0-0.1,0.1-0.2,0.1c0.7,0,1.3-0.1,2-0.2
				c0.7-0.1,1.3-0.3,1.8-0.8c0.1-0.1,0.2-0.2,0.4-0.2c0.2-0.1,0.5-0.1,0.6,0.2c0.1,0.1,0.1,0.2,0.1,0.2c0.3,0.7,0.9,1,1.6,1.1
				c0.5,0.1,1,0,1.5-0.1c0.5-0.1,0.8,0.1,0.7,0.6c-0.1,0.6,0,1.1,0.3,1.6c0.7,0.9,1.4,1.7,2.4,2.3c0.1,0,0.1,0.1,0.2,0.1
				c0.2,0.2,0.3,0.4,0.2,0.5c-0.1,0.2-0.3,0.2-0.6,0.2c-0.2-0.1-0.4-0.1-0.6-0.2c-1-0.3-1.9-0.5-2.9-0.4c-0.5,0.1-1,0.3-1.5,0.6
				c-0.4,0.3-0.8,0.1-0.8-0.4c0-0.1,0-0.3-0.1-0.4c-0.4-1.1-2.1-1.7-3.1-1c-0.1,0.1-0.3,0.2-0.4,0.3c-0.3,0.2-0.6,0-0.7-0.3
				c0-0.1,0-0.3,0-0.4c0-0.3-0.1-0.6-0.3-0.8c-0.4-0.5-1-0.9-1.6-0.9c-0.6,0-1.2,0-1.8,0.1c-0.6,0-1.2,0.1-1.9,0.2
				c-0.5,0-1.1,0.1-1.6,0.1c-0.7,0-1.4,0.1-2.2,0.1c-0.2,0-0.3,0-0.5,0c-0.2,0-0.2-0.2-0.1-0.4c0,0,0.1-0.1,0.1-0.1
				c0.5-0.3,1-0.5,1.4-0.8c0.6-0.3,1.1-0.7,1.6-1.1c0.2-0.2,0.4-0.4,0.4-0.7c0.2-0.7,0.2-1.3,0.1-2c-0.1-0.7,0-0.8,0.7-0.8
				c1,0,1.9-0.1,2.7-0.5c0.1,0,0.1-0.1,0.2-0.1c0.5-0.2,0.8,0.1,0.6,0.6c-0.2,1-0.3,1.9-0.2,2.9c0,0.4,0,0.5-0.4,0.6
				c-0.3,0.1-0.7,0.2-1,0.3c-0.7,0.2-1.4,0.4-2.1,0.6c-0.2,0.1-0.4,0.2-0.6,0.3c0,0,0,0.1,0,0.1c0.4-0.1,0.9-0.1,1.3-0.3
				c4.9-1.6,9.6-3.8,13.9-6.7c0.4-0.3,0.6-0.6,1-1c0.1-0.1,0.1-0.2,0.1-0.3c0.1-0.6,0.2-1.2,0.2-1.9c-0.1-1.1-0.3-2.2-0.5-3.3
				c-0.1-0.8-0.1-0.8,0.6-1.1c0.9-0.3,1.5-0.9,1.8-1.8c0.4-1.2,0.4-2.4,0.3-3.6c-0.1-0.7-0.3-1.4-0.4-2.2c-0.1-0.4,0-0.6,0.4-0.7
				c1-0.3,1.8-0.9,2.4-1.8c0.4-0.6,0.8-1.1,1.2-1.7c0.4-0.6,0.7-1.1,1.1-1.7c0.1-0.2,0.3-0.3,0.5-0.2c0.2,0.1,0.3,0.2,0.2,0.5
				c0,0.2,0,0.5-0.1,0.7c-0.2,1.1-0.3,2.1-0.3,3.2c0.1,1,0.2,2.1,1,2.9c0.2,0.3,0.2,0.5-0.1,0.6c-0.4,0.2-0.7,0.5-0.9,0.8
				c-0.8,1.2-1.1,2.5-0.4,3.8c0,0,0,0.1,0.1,0.1c0.1,0.3,0,0.5-0.2,0.6c-0.1,0.1-0.2,0.1-0.3,0.1c-0.5,0.2-0.9,0.4-1.3,0.8
				c-0.4,0.3-0.7,0.7-1,1.1c-1,1.2-1.8,2.5-2.6,3.8c0,0.1-0.1,0.2-0.1,0.2c0.1,0,0.2,0,0.2-0.1c1.2-0.9,2.3-1.8,3.3-2.9
				c2.3-2.3,4.3-4.7,6-7.4c0.6-1,1.2-2,1.8-3c1.3-2.1,2.1-4.3,2.6-6.7c0.6-2.9,0.8-5.9,0.6-8.8c-0.1-1.5-0.4-2.9-0.8-4.3
				c-0.4-1.2-0.7-2.5-1.1-3.7c-0.1-0.2-0.1-0.5-0.2-0.7c0-0.3,0-0.4,0.2-0.5c0.2-0.1,0.4,0.1,0.5,0.3c0.1,0.1,0.1,0.3,0.2,0.5
				c0.6,2.2,1.3,4.4,1.7,6.6c0.3,2,0.4,4,0.2,6c-0.1,1.3-0.2,2.5-0.4,3.8C317.1,280.5,317.4,279.8,317.6,279z M295.8,307.3
				c0.1,0,0.2,0,0.3,0c0.6-0.1,1.2-0.2,1.8-0.3c0.2,0,0.3-0.1,0.5-0.2c1-0.7,1.7-1.5,2.4-2.5C299,305.3,297.4,306.3,295.8,307.3z
				 M312.9,291.9c1.1-1.6,1.9-3.3,2.5-5.2c0,0,0-0.1,0-0.1c-1.1,2-2.3,4.1-3.5,6.1C312.4,292.5,312.7,292.3,312.9,291.9z"/>
			<path class="st13" d="M285,303.4c0.1,0,0.2-0.1,0.4-0.1c0.8-0.3,1.4-0.1,2,0.4c0.3,0.3,0.7,0.7,0.9,1.1c0.3,0.5,0.8,0.5,1.1,0.1
				c0.5-0.7,1.2-1,2-1.1c0.2,0,0.5,0,0.8,0c0.2,0,0.3,0.1,0.5,0.1c0.2,0,0.3-0.1,0.4-0.3c0-0.2,0-0.3-0.2-0.4
				c-0.4-0.1-0.5-0.4-0.7-0.8c-0.2-0.5-0.4-1-0.5-1.5c0-0.1,0-0.1,0-0.2c-0.2-0.6-0.4-0.7-0.9-0.4c-0.6,0.4-1.2,0.4-1.8,0.2
				c-0.5-0.2-1-0.5-1.5-0.8c-0.4-0.3-0.5-0.3-0.8,0c-0.5,0.4-1.1,0.4-1.6,0.1c-0.4-0.2-0.8-0.5-1.2-0.7c-0.1-0.1-0.2-0.2-0.3-0.2
				c-0.2,0-0.3,0-0.4,0.1c-0.1,0.2-0.1,0.3,0.1,0.4c0,0,0.1,0.1,0.1,0.1c0.9,0.8,1.2,1.7,1.3,2.9c0,0.2,0,0.4,0.1,0.6
				C284.5,303.3,284.7,303.4,285,303.4z"/>
			<path class="st13" d="M313.6,280.7c-0.6,0-1,0.3-1.4,0.8c-0.5,0.7-0.2,1.8,0.3,2.1c0.7,0.5,1.6,0.5,2.2-0.2
				c0.3-0.3,0.5-0.7,0.5-1.2C315.4,281.3,314.4,280.6,313.6,280.7z"/>
			<path class="st13" d="M310.3,300.5c0.7,0.1,1.6-0.6,1.4-1.7c0-0.1,0-0.2-0.1-0.2c-0.4-0.6-0.9-1.1-1.6-1.2
				c-0.6-0.1-1.2,0.2-1.5,0.7c-0.3,0.6-0.3,1.1,0.2,1.7C309.1,300.2,309.6,300.5,310.3,300.5z"/>
			<path class="st13" d="M294.4,299.8c-0.5,0-0.9,0.2-1.2,0.6c-0.2,0.3-0.3,0.7-0.2,1.1c0.1,0.4,0.3,0.8,0.6,1.2
				c0.4,0.4,0.9,0.5,1.5,0.3c0.5-0.2,0.8-0.6,0.9-1.2c0-0.2,0-0.3,0-0.5C296.1,300.4,295.3,299.8,294.4,299.8z"/>
			<path class="st13" d="M312.3,295c-0.1,0-0.2,0-0.3,0c-1.1,0.2-1.5,1.2-0.9,2.1c0.3,0.5,0.7,0.7,1.3,0.7c0.9,0.1,1.6-0.7,1.5-1.6
				c0-0.3-0.2-0.5-0.4-0.7C313.2,295.2,312.8,295,312.3,295z"/>
			<path class="st13" d="M292.4,305c0,0.4,0.1,0.7,0.4,0.9c0.4,0.3,0.7,0.5,1.2,0.5c0.2,0,0.5-0.1,0.7-0.2c0.4-0.4,0.7-0.8,0.8-1.4
				c0-0.3-0.1-0.6-0.3-0.8c-0.6-0.5-1.7-0.6-2.2-0.1C292.6,304.2,292.5,304.6,292.4,305z"/>
			<path class="st13" d="M297.9,304.2c0.7,0,1.1-0.4,1.3-1.2c0.2-0.6-0.2-1.2-0.8-1.4c-1-0.4-1.6,0-2,0.6c-0.4,0.6-0.3,1.2,0.2,1.6
				C297.1,304,297.5,304.1,297.9,304.2z"/>
			<path class="st13" d="M315.9,279.2c0-0.6-0.5-1-1.1-1c-0.6,0-1.2,0.5-1.2,1.1c0,0.6,0.6,1.1,1.3,1.2
				C315.5,280.5,315.9,279.9,315.9,279.2z"/>
		</g>
		<g>
			<g>
				<path class="st13" d="M264.3,286.2c-0.6-0.1-1.1-0.1-1.6-0.2c-0.4-0.1-0.8-0.3-1.2-0.4c-0.1,0-0.1-0.1-0.2-0.1
					c0-0.1-0.1-0.2,0-0.2c0-0.1,0.1-0.1,0.2-0.1c0.1,0,0.2,0,0.3,0.1c0.8,0.3,1.7,0.4,2.7,0.3c0.1-0.2,0.1-0.3,0.2-0.5
					c0.6-1.7,1.4-3.2,2.7-4.5c0.5-0.4,1-0.8,1.5-1.1c0.5-0.2,1.1-0.3,1.7-0.2c1,0.2,1.6,1.1,1.3,2c-0.1,0.3-0.2,0.7-0.4,1
					c-1.1,1.8-2.7,3.1-4.8,3.6c-0.3,0.1-0.4,0.2-0.5,0.5c-0.2,0.8-0.3,1.6-0.4,2.4c0,1,0.2,2,0.9,2.8c0.6,0.7,1.4,1,2.4,0.8
					c1.1-0.3,2-0.9,2.7-1.7c0.1-0.1,0.1-0.2,0.1-0.4c0.1-1.1,0.5-2.1,1.1-3c0.6-0.8,1.4-1.3,2.3-1.5c0.5-0.1,1-0.1,1.4,0.3
					c0.2,0.1,0.3,0.3,0.4,0.5c0.1-0.3,0.3-0.6,0.4-0.8c0.1-0.2,0.2-0.4,0.5-0.4c0.2,0,0.3,0.2,0.3,0.6c-0.1,0.6-0.2,1.3-0.4,1.9
					c-0.3,1.1-0.6,2.1-0.6,3.3c0,0.1,0,0.2,0,0.4c0,0,0,0,0.1,0.1c0.3-0.1,0.6-0.3,0.8-0.5c0.1-0.1,0.2-0.2,0.4-0.3
					c0.2-0.1,0.4,0,0.3,0.2c0,0.2-0.1,0.3-0.2,0.5c-0.3,0.4-0.7,0.7-1.2,0.9c-0.5,0.2-1,0.1-1.4-0.5c-0.1-0.1-0.1-0.2-0.2-0.4
					c-0.3,0.2-0.6,0.4-0.9,0.6c-0.6,0.5-1.2,0.5-1.9,0.4c-0.4-0.1-0.8-0.3-1-0.7c-0.1-0.1-0.1-0.2-0.2-0.3c-0.3,0.2-0.5,0.5-0.7,0.7
					c-1.2,1-2.5,1.5-4,1.3c-0.8-0.1-1.4-0.5-1.9-1c-1-1-1.4-2.3-1.4-3.7c0-0.8,0.1-1.5,0.3-2.3C264.3,286.4,264.3,286.3,264.3,286.2
					z M273.4,290.8c0,0.7,0.5,0.8,1,0.8c0.1,0,0.1,0,0.2,0c0.5-0.2,0.9-0.5,1.4-0.7c0.1,0,0.2-0.2,0.2-0.3c0.1-0.8,0.3-1.7,0.6-2.4
					c0.2-0.5,0-0.9-0.3-1.3c-0.1-0.2-0.3-0.3-0.6-0.2c-0.7,0.3-1.3,0.7-1.7,1.3C273.7,288.8,273.5,289.8,273.4,290.8z M266.6,285.1
					c0.5-0.1,1-0.3,1.4-0.5c1-0.6,1.9-1.4,2.6-2.4c0.2-0.3,0.3-0.5,0.5-0.8c0.1-0.1,0.1-0.2,0.1-0.4c0.1-0.7-0.2-1.1-0.9-1.1
					c-0.5,0-0.9,0.2-1.2,0.5c-0.3,0.4-0.6,0.8-0.9,1.2c-0.6,0.9-1.1,1.9-1.4,2.9C266.7,284.7,266.7,284.9,266.6,285.1z"/>
				<path class="st13" d="M289.3,291.7c0.5-0.1,0.8-0.2,1.1-0.5c0.1-0.1,0.2-0.2,0.3-0.2c0.1,0,0.2,0,0.3,0c0.1,0,0.1,0.2,0.1,0.2
					c-0.1,0.2-0.2,0.4-0.4,0.6c-0.4,0.3-0.8,0.5-1.3,0.7c-0.6,0.2-1.3-0.3-1.4-1c-0.1-0.8,0-1.5,0.2-2.2c0.7-2.5,1.5-5,2.5-7.4
					c0.2-0.4,0.4-0.8,0.6-1.2c0.2-0.3,0.4-0.4,0.6-0.3c0.3,0.1,0.3,0.4,0.2,0.7c-0.1,0.3-0.1,0.7-0.2,1c-0.6,2-1.2,4-1.8,6
					c-0.3,1.1-0.7,2.2-0.8,3.3C289.3,291.5,289.3,291.6,289.3,291.7z"/>
				<path class="st13" d="M283.2,290.8c0.1-1.3,0.5-2.4,1.3-3.4c0.4-0.5,0.8-0.8,1.5-0.9c0.1,0,0.2-0.1,0.3-0.1c0.1,0,0.2,0,0.4,0
					c0.5,0.1,1.1,0.6,1.2,1.1c0.1,0.7,0,1.3-0.1,2c-0.3,1.1-0.9,2.1-1.8,2.8c-0.2,0.1-0.3,0.2-0.5,0.3c-0.8,0.4-1.7,0.1-2-0.7
					C283.3,291.5,283.2,291.2,283.2,290.8z M284.7,291.5c0.1-0.1,0.3-0.1,0.4-0.2c1.1-0.8,1.6-2,1.7-3.4c0-0.5-0.3-0.7-0.8-0.5
					c-0.3,0.2-0.5,0.4-0.7,0.7c-0.4,0.6-0.6,1.2-0.7,1.9C284.6,290.5,284.5,291,284.7,291.5z"/>
				<path class="st13" d="M291.9,291.2c0-0.1,0-0.2,0.1-0.3c0.1-0.1,0.2-0.2,0.3-0.3c0.2-0.1,0.3,0.1,0.3,0.2
					c0.1,0.2,0.1,0.3,0.1,0.5c0.1,0.4,0.2,0.5,0.7,0.4c0.9-0.3,1.1-0.9,0.5-1.7c-0.3-0.4-0.6-0.7-1-1.1c-0.2-0.2-0.3-0.4-0.5-0.7
					c-0.3-0.5-0.3-0.9-0.1-1.4c0.1-0.4,0.4-0.8,0.7-1.1c0.2-0.1,0.3-0.3,0.5-0.3c0.4-0.2,0.9-0.2,1.2,0.2c0.4,0.3,0.4,0.8,0.3,1.2
					c0,0.1-0.1,0.2-0.2,0.2c-0.1,0.1-0.3,0-0.3-0.1c0-0.1-0.1-0.2-0.1-0.3c-0.1-0.4-0.3-0.4-0.6-0.1c-0.4,0.4-0.4,1,0,1.4
					c0.4,0.5,0.8,0.9,1.2,1.4c0.2,0.3,0.4,0.6,0.5,1c0.2,0.7,0,1.3-0.5,1.8c-0.5,0.5-1.1,0.8-1.8,0.8c-0.6,0-1.1-0.4-1.1-1
					C292,291.5,292,291.4,291.9,291.2z"/>
				<path class="st13" d="M281.6,287c0.4-0.1,0.7-0.3,1.1-0.4c0.1,0,0.3-0.1,0.4,0c0.2,0,0.4,0.2,0.4,0.5c0,0.3-0.2,0.4-0.4,0.3
					c-0.2-0.1-0.3,0-0.4,0c-0.9,0.3-1.3,0.9-1.5,1.7c-0.3,0.9-0.5,1.7-0.7,2.6c0,0.1-0.1,0.3-0.1,0.4c-0.1,0.3-0.3,0.5-0.6,0.4
					c-0.3,0-0.4-0.2-0.4-0.6c0-0.4,0-0.7,0.1-1.1c0.3-1.4,0.7-2.8,1.3-4.2c0-0.1,0.1-0.2,0.2-0.4c0.1-0.2,0.2-0.3,0.4-0.2
					c0.2,0,0.3,0.2,0.3,0.3C281.6,286.5,281.6,286.7,281.6,287z"/>
			</g>
			<g>
				<path class="st13" d="M262.1,271.7c0.3-0.3,0.7-0.5,1-0.8c0.6-0.4,1.2-0.8,1.9-1c0.2-0.1,0.3-0.1,0.5-0.1
					c0.6-0.1,1.1,0.2,1.2,0.8c0.1,0.5,0.1,0.9,0,1.3c-0.2,0.9-0.5,1.7-0.7,2.5c-0.1,0.4-0.3,0.9-0.4,1.3c0,0.1,0,0.2-0.1,0.4
					c0.5-0.2,0.9-0.5,1.2-0.8c0.1-0.1,0.2-0.2,0.4-0.3c0.1-0.1,0.2-0.1,0.3,0c0.2,0.1,0.1,0.2,0.1,0.3c-0.1,0.2-0.2,0.4-0.3,0.5
					c-0.4,0.4-0.8,0.7-1.3,1c-0.4,0.3-0.8,0.2-1.2,0.1c-0.4-0.1-0.6-0.4-0.6-0.8c0-0.2,0-0.5,0-0.8c0.2-0.6,0.4-1.3,0.6-1.9
					c0.2-0.7,0.5-1.3,0.7-2c0.1-0.3,0.2-0.6,0.2-1c-0.2,0-0.3,0-0.5,0c-0.4,0.2-0.8,0.3-1.2,0.5c-1,0.6-1.8,1.4-2.4,2.3
					c-0.1,0.1-0.1,0.3-0.2,0.4c-0.3,0.9-0.6,1.8-0.9,2.7c-0.2,0.5-0.4,1-0.8,1.4c-0.1,0.1-0.2,0.2-0.2,0.3c-0.2,0.2-0.5,0.2-0.8,0
					c-0.3-0.2-0.4-0.4-0.3-0.7c0.1-0.4,0.2-0.9,0.3-1.3c0.2-0.6,0.4-1.2,0.6-1.9c-0.1,0.1-0.2,0.1-0.3,0.2c-0.3,0.3-0.7,0.5-1,0.8
					c-0.5,0.4-1.1,0.7-1.6,0.9c-2.3,1-4.4-0.6-4.9-2.5c-0.2-0.9-0.1-1.9,0-2.8c0.2-0.8,0.4-1.6,0.8-2.4c0-0.1,0.1-0.1,0.1-0.2
					c-0.1,0-0.2-0.1-0.3-0.1c-0.9-0.3-1.7-0.9-2.5-1.5c-0.2-0.1-0.3-0.3-0.4-0.5c0-0.1,0-0.2,0-0.2c0.1-0.1,0.2-0.1,0.3,0
					c0.1,0,0.2,0.1,0.2,0.2c0.7,0.7,1.5,1.2,2.4,1.5c0.1,0,0.2,0.1,0.3,0.1c0,0,0.1,0,0.1,0c0-0.1,0.1-0.1,0.1-0.2
					c0.5-0.8,0.9-1.6,1.4-2.3c0.3-0.4,0.6-0.8,0.9-1.2c0.7-0.8,1.6-1.5,2.5-2.1c0.7-0.4,1.4-0.7,2.2-0.8c1.6-0.1,2.8,1.4,2.4,3
					c-0.2,0.8-0.6,1.4-1.2,1.9c-1.1,1.1-2.4,1.8-3.9,2.2c-0.9,0.2-1.8,0.4-2.7,0.3c-0.1,0-0.2,0-0.3,0c-0.5,1.2-0.9,2.4-1,3.7
					c-0.1,0.7,0,1.4,0.3,2.1c0.4,0.9,1.1,1.3,2.1,1.1c0.5-0.1,0.9-0.3,1.3-0.5c1-0.5,1.8-1.2,2.7-1.9c0.2-0.1,0.3-0.3,0.3-0.5
					c0.1-0.3,0.2-0.7,0.4-1.1c-0.2,0.1-0.3,0.1-0.5,0.1c-0.6,0.2-1.2,0.2-1.7,0c-0.4-0.2-0.7-0.5-0.8-0.9c0-0.1-0.1-0.2,0-0.3
					c0-0.1,0.1-0.2,0.2-0.2c0.1,0,0.2,0.1,0.3,0.1c0,0,0,0.1,0.1,0.1c0.3,0.6,0.7,0.7,1.3,0.6c0.5-0.1,1-0.3,1.4-0.5
					c0.1-0.1,0.2-0.2,0.2-0.3c0.9-2.3,1.8-4.5,2.8-6.8c0.5-1.2,1.2-2.4,1.8-3.6c0.2-0.4,0.5-0.7,0.8-1c0.3-0.4,0.7-0.6,1.2-0.4
					c0.5,0.1,0.7,0.6,0.8,1.1c0.2,0.8,0.1,1.6-0.1,2.3c-0.7,3.3-2.4,5.9-5,8.1c-0.2,0.2-0.4,0.4-0.5,0.7
					C262.4,270.8,262.2,271.2,262.1,271.7C262.1,271.7,262.1,271.7,262.1,271.7z M254.5,267.9c0.1,0,0.1,0,0.1,0c0.1,0,0.2,0,0.2,0
					c1.4,0,2.7-0.4,3.9-1.1c0.8-0.4,1.5-1,2-1.7c0.3-0.4,0.5-0.7,0.7-1.2c0.3-0.9-0.1-1.7-0.9-2c-0.4-0.2-0.8-0.1-1.1,0
					c-0.6,0.2-1.1,0.5-1.5,0.9c-1.6,1.3-2.6,3-3.4,4.8C254.5,267.8,254.5,267.8,254.5,267.9z M267.1,259c-0.3,0.1-0.4,0.4-0.5,0.7
					c-0.3,0.7-0.7,1.4-0.9,2.2c-0.8,2.1-1.5,4.2-2.3,6.3c0,0,0,0.1,0,0.2c0.4-0.5,0.8-0.9,1.1-1.3c1.2-1.5,2.2-3.2,2.6-5.1
					c0.2-0.7,0.3-1.5,0.3-2.2C267.3,259.5,267.3,259.2,267.1,259z"/>
				<path class="st13" d="M294.4,270.4c-0.6,0.2-1,0.5-1.5,0.9c-0.6,0.6-1,1.3-1.4,2c-0.1,0.1-0.1,0.2-0.1,0.3
					c-0.2,0.7-0.4,1.5-0.7,2.2c-0.1,0.2-0.1,0.4-0.3,0.6c-0.2,0.3-0.6,0.4-0.9,0.3c-0.3-0.1-0.5-0.4-0.5-0.7c0-0.2,0.1-0.5,0.1-0.7
					c0.2-0.7,0.5-1.5,0.7-2.2c0.2-0.6,0.3-1.2,0.5-1.7c0-0.2,0-0.3,0.1-0.6c-0.2,0.1-0.3,0.1-0.4,0.2c-0.3,0.2-0.7,0.5-0.9,0.8
					c-0.6,0.6-1,1.3-1.3,2.1c-0.2,0.6-0.4,1.1-0.5,1.7c-0.1,0.4-0.4,0.8-0.6,1.1c-0.2,0.2-0.5,0.3-0.7,0.2c-0.3-0.1-0.4-0.3-0.3-0.7
					c0-0.1,0-0.1,0-0.2c0.1-0.3,0.2-0.6,0.3-0.9c0.4-1.2,0.9-2.5,1.3-3.7c0.1-0.4,0.2-0.7,0.2-1.1c-0.2,0-0.4,0.1-0.5,0.2
					c-0.1,0.1-0.1,0.2-0.2,0.2c-0.1,0-0.2,0.1-0.3,0c-0.1,0-0.1-0.1-0.1-0.2c0,0,0-0.1,0-0.2c0.1-0.4,0.9-1,1.3-0.9
					c0.3,0,0.5,0.2,0.7,0.4c0.2,0.3,0.3,0.7,0.2,1.1c0,0.1,0,0.3-0.1,0.5c0.1-0.1,0.2-0.2,0.3-0.3c0.5-0.5,0.9-0.9,1.5-1.2
					c0.2-0.1,0.5-0.2,0.8-0.1c0.5,0.1,0.7,0.5,0.8,0.9c0,0.2,0,0.4,0,0.6c0,0.1,0,0.3,0,0.5c0.1-0.1,0.2-0.2,0.3-0.3
					c0.5-0.7,1.2-1.2,1.9-1.6c0.6-0.4,1.3-0.1,1.6,0.5c0.2,0.5,0.2,1,0.2,1.5c-0.2,1.3-0.7,2.6-1.1,3.9c0,0.2-0.1,0.3-0.1,0.5
					c0,0,0,0.1,0,0.1c0.2-0.1,0.4-0.3,0.5-0.4c0.1-0.1,0.3-0.3,0.5-0.1c0.2,0.2,0,0.3-0.1,0.4c-0.4,0.5-0.9,0.7-1.4,0.8
					c-0.3,0.1-0.7-0.2-0.8-0.5c-0.1-0.3-0.1-0.5,0-0.8c0.2-0.7,0.4-1.3,0.6-2c0.2-0.7,0.5-1.4,0.7-2.1
					C294.5,271.2,294.5,270.8,294.4,270.4z"/>
				<path class="st13" d="M283.3,267.5c-1-0.4-1.9-0.6-2.9-0.4c-0.2,0-0.3,0.1-0.5-0.1c-0.1-0.1,0-0.3,0.3-0.4
					c0.7-0.3,1.5-0.3,2.3-0.2c0.3,0.1,0.7,0.2,1,0.2c0-0.1,0.1-0.2,0.1-0.3c0.6-1.6,1.1-3.2,1.7-4.7c0.2-0.4,0.3-0.8,0.5-1.3
					c0.1-0.3,0.3-0.4,0.5-0.4c0.2,0.1,0.4,0.3,0.4,0.6c0,0.3-0.1,0.6-0.1,0.8c-0.3,1.4-0.8,2.8-1.3,4.2c-0.2,0.5-0.3,1-0.5,1.5
					c0.2,0,0.3,0.1,0.4,0.1c0.5,0,0.9,0.1,1.4,0.1c0.3,0,0.6,0,0.8-0.2c0.1-0.1,0.2-0.1,0.4,0c0.1,0.1,0.1,0.2,0,0.4
					c-0.1,0.2-0.3,0.3-0.5,0.4c-0.3,0.1-0.6,0.2-0.9,0.1c-0.5,0-1.1-0.1-1.6-0.1c-0.1,0-0.1,0-0.2,0c-0.5,0.9-2.3,7.6-2.3,8.2
					c0.3,0,0.5-0.1,0.6-0.3c0.4-0.4,0.8-0.8,1.1-1.1c0.2-0.2,0.3-0.4,0.5-0.7c0.1-0.1,0.2-0.2,0.4-0.1c0.1,0.1,0.1,0.2,0.1,0.4
					c-0.1,0.2-0.1,0.4-0.2,0.6c-0.5,0.9-1.2,1.6-2.1,2.1c-0.1,0.1-0.2,0.1-0.4,0.2c-0.7,0.2-1.3-0.2-1.4-0.9c-0.1-0.5,0-0.9,0.1-1.3
					c0.4-1.6,0.9-3.2,1.3-4.8c0.2-0.8,0.5-1.6,0.8-2.4C283.3,267.7,283.3,267.6,283.3,267.5z"/>
				<path class="st13" d="M300.1,276c-0.3,0.2-0.6,0.4-1,0.6c-0.4,0.2-0.9,0.4-1.3,0.3c-0.8-0.2-1.3-0.7-1.3-1.5c0-0.3,0-0.7,0.1-1
					c0.3-1.4,1-2.7,1.8-3.9c0.3-0.4,0.7-0.8,1.1-1c0.9-0.4,1.6-0.2,2.1,0.6c0,0,0,0,0.1,0.1c0.1-0.2,0.2-0.3,0.3-0.5
					c0.1-0.1,0.2-0.2,0.3-0.3c0.2-0.2,0.5-0.1,0.5,0.2c0,0.3,0,0.5-0.1,0.8c-0.3,0.9-0.5,1.8-0.8,2.7c-0.3,0.9-0.5,1.8-0.6,2.7
					c0,0.1,0,0.2,0,0.3c0.1,0,0.2,0,0.3-0.1c0.3-0.2,0.7-0.5,1-0.7c0.3-0.2,0.4-0.2,0.5-0.1c0.2,0.2,0.1,0.3,0,0.5
					c-0.4,0.6-0.9,1-1.6,1.3c-0.4,0.2-1-0.1-1.2-0.5C300.2,276.2,300.2,276.1,300.1,276z M301.1,271.1c0-0.1,0-0.3,0-0.4
					c-0.1-0.5-0.5-0.7-0.9-0.4c-0.3,0.2-0.6,0.6-0.8,0.9c-0.6,1.1-1.1,2.2-1.3,3.5c0,0.2-0.1,0.4-0.1,0.7c0,0.4,0.2,0.6,0.6,0.5
					c0.1,0,0.3,0,0.4-0.1c0.4-0.2,0.8-0.5,1.1-0.8c0.1-0.1,0.1-0.2,0.2-0.3c0.2-0.7,0.4-1.4,0.6-2.1
					C301,272.2,301.1,271.6,301.1,271.1z"/>
				<path class="st13" d="M305.3,277.1c-0.9,0-1.6-0.8-1.3-1.7c0.1-0.2,0.2-0.3,0.4-0.5c0.1-0.1,0.2-0.1,0.3,0
					c0.1,0,0.1,0.2,0.1,0.3c0,0.1,0,0.2-0.1,0.3c0,0.3,0.2,0.6,0.5,0.6c0.1,0,0.2,0,0.4-0.1c0.6-0.1,0.9-0.5,0.9-1.1
					c0-0.7-0.2-1.3-0.6-1.8c-0.2-0.3-0.5-0.6-0.7-1c-0.5-0.7-0.5-1.5-0.1-2.2c0.2-0.4,0.4-0.6,0.8-0.8c0.5-0.3,1.1-0.2,1.5,0.2
					c0.3,0.3,0.4,0.6,0.3,1c0,0.1-0.1,0.3-0.3,0.2c-0.1,0-0.2-0.1-0.2-0.2c-0.1-0.2-0.1-0.4-0.3-0.4c-0.4-0.1-0.8,0.1-0.8,0.5
					c-0.1,0.4,0,0.7,0.2,1c0.3,0.3,0.5,0.6,0.8,0.9c0.7,0.8,0.9,1.8,0.8,2.8c-0.2,1.2-1.1,2-2.3,2
					C305.4,277.1,305.3,277.1,305.3,277.1z"/>
				<path class="st13" d="M277.8,276.8c-0.7,0-1.1-0.3-1.2-1c-0.1-0.3-0.1-0.5-0.1-0.8c0-0.2,0.1-0.4,0.3-0.6
					c0.1-0.1,0.2-0.1,0.3-0.1c0.1,0,0.1,0.2,0.1,0.3c0.1,0.3,0.1,0.6,0.1,0.9c0.1,0.2,0.2,0.3,0.4,0.2c0.4-0.1,0.8-0.3,1.1-0.7
					c0.1-0.1,0.1-0.3,0.1-0.4c0-0.3,0-0.5-0.1-0.8c-0.2-0.5-0.5-1.1-0.7-1.6c-0.2-0.5-0.4-1-0.6-1.5c-0.2-0.9,0.3-1.8,1.2-2.1
					c0.8-0.3,1.5,0.3,1.4,1c0,0.2,0,0.4-0.1,0.6c0,0.1-0.1,0.2-0.3,0.2c-0.1,0-0.2-0.1-0.2-0.2c0-0.1,0-0.3,0-0.4
					c0-0.2,0-0.3-0.2-0.4c-0.2-0.1-0.3,0-0.4,0.2c-0.2,0.2-0.3,0.5-0.1,0.7c0.1,0.3,0.3,0.6,0.4,0.8c0.3,0.5,0.6,1,0.8,1.5
					c0.3,0.6,0.4,1.2,0.4,1.9c0,0.6-0.3,1-0.8,1.4C279.1,276.4,278.5,276.8,277.8,276.8z"/>
				<path class="st13" d="M272.3,270.2c-0.2,0.2-0.4,0.3-0.6,0.5c-0.6,0.6-1.1,1.2-1.4,2c-0.4,0.8-0.7,1.7-0.9,2.5
					c-0.1,0.3-0.1,0.5-0.2,0.8c0,0.1-0.1,0.2-0.1,0.3c-0.1,0.2-0.4,0.3-0.7,0.3c-0.2-0.1-0.4-0.3-0.4-0.5c0-0.2,0-0.4,0.1-0.6
					c0.5-1.8,0.9-3.7,1.4-5.5c0.1-0.2,0.2-0.4,0.4-0.4c0.2,0,0.4,0.1,0.5,0.4c0.1,0.3,0.1,0.5,0.1,0.9c0.1-0.1,0.1-0.1,0.2-0.2
					c0.3-0.3,0.6-0.6,1-0.8c0.2-0.1,0.4-0.2,0.6-0.3c0.4-0.1,0.7,0,0.8,0.4c0.1,0.3,0.1,0.6,0.1,0.9c0,0.2-0.1,0.4-0.3,0.5
					c-0.1,0.1-0.3,0.1-0.4,0.1c-0.2,0-0.2-0.2-0.1-0.3C272.5,270.7,272.5,270.5,272.3,270.2z"/>
				<path class="st13" d="M273.9,275.8c0.3-0.2,0.5-0.3,0.8-0.5c0.1-0.1,0.3-0.2,0.4-0.3c0.1,0,0.2,0,0.3,0c0.1,0,0.1,0.2,0.1,0.3
					c-0.1,0.2-0.2,0.3-0.3,0.4c-0.4,0.4-0.8,0.7-1.2,0.9c-0.2,0.1-0.4,0.1-0.7,0.1c-0.4,0-0.7-0.2-0.7-0.6c-0.1-0.3-0.1-0.6,0-0.8
					c0.1-0.5,0.2-1.1,0.4-1.6c0.4-1.2,0.9-2.4,1.3-3.6c0.1-0.2,0.1-0.3,0.2-0.5c0.1-0.2,0.3-0.3,0.5-0.2c0.2,0,0.4,0.2,0.4,0.4
					c0,0.2,0,0.3,0,0.5c-0.2,1-0.5,1.9-0.8,2.8c-0.3,0.8-0.5,1.6-0.7,2.4C273.8,275.6,273.8,275.7,273.9,275.8
					C273.9,275.8,273.9,275.8,273.9,275.8z"/>
				<path class="st13" d="M274.9,267.4c0-0.1,0-0.2,0-0.2c0-0.3,0.4-0.6,0.8-0.6c0.3,0.1,0.6,0.4,0.6,0.8c0.1,0.3-0.1,0.6-0.4,0.8
					c-0.5,0.3-0.9,0-1-0.5C274.9,267.6,274.9,267.5,274.9,267.4C274.9,267.4,274.9,267.4,274.9,267.4z"/>
			</g>
		</g>
	</g>
</g>
</svg>
