<?xml version="1.0" encoding="utf-8"?>
<!-- Generator: Adobe Illustrator 22.0.1, SVG Export Plug-In . SVG Version: 6.00 Build 0)  -->
<svg version="1.1" id="Calque_1" xmlns="http://www.w3.org/2000/svg" xmlns:xlink="http://www.w3.org/1999/xlink" x="0px" y="0px"
	 viewBox="0 0 432 432" style="enable-background:new 0 0 432 432;" xml:space="preserve">
<style type="text/css">
	.st0{fill:#957452;}
	.st1{fill:#88573C;}
	.st2{fill:#D6C49A;}
	.st3{fill:#E52627;}
	.st4{fill:#CDCCCC;}
	.st5{fill:#264395;}
	.st6{fill:#1E274A;}
	.st7{fill:#EC6625;}
	.st8{fill:#020203;}
	.st9{fill:#E52521;}
	.st10{fill:#808181;}
	.st11{fill:#FFE324;}
	.st12{fill:#3F4244;}
	.st13{fill:#009F4A;}
	.st14{fill:#343434;}
	.st15{fill:#78170E;}
	.st16{fill:#F0E9D5;}
	.st17{fill:#272531;}
	.st18{fill:#222B56;}
	.st19{fill:#9BD2CC;}
	.st20{fill:#83B143;}
	.st21{fill:#1B1B1B;}
	.st22{fill:#FFFFFF;}
	.st23{fill:#DDD6C3;}
	.st24{fill:#997F64;}
	.st25{fill:#77684B;}
	.st26{fill:#A89877;}
	.st27{fill:#B4B4B4;}
	.st28{fill:#DDCEBB;}
	.st29{fill:#9A2A1A;}
	.st30{fill:#5E1C0C;}
	.st31{fill:#F1CA43;}
	.st32{fill:#A57B46;}
	.st33{fill:#F18538;}
	.st34{fill:#F2AC64;}
	.st35{fill:#FAB42D;}
	.st36{fill:#46494E;}
	.st37{fill:#CF875E;}
	.st38{fill:#E7E6E6;}
	.st39{fill:#1A181D;}
	.st40{fill:#637644;}
	.st41{fill:#9F1E29;}
	.st42{fill:#F9B03D;}
	.st43{fill:#0D71B9;}
	.st44{fill:#E52629;}
	.st45{fill:#676767;}
	.st46{fill:#30358C;}
	.st47{fill:#9A9999;}
	.st48{fill:#3F4798;}
	.st49{fill:#2DABE3;}
	.st50{fill:#C1292E;}
	.st51{fill:#F2F2F2;}
	.st52{fill:#AA7C4C;}
	.st53{fill:#D6A573;}
	.st54{fill:#29ACE1;}
	.st55{fill:#88C05E;}
	.st56{fill:#F39323;}
	.st57{fill:#EB5B28;}
	.st58{fill:#B85965;}
	.st59{fill:#A67D52;}
	.st60{fill:#8C633A;}
	.st61{fill:#009245;}
	.st62{fill:#066938;}
	.st63{fill:#7D252D;}
	.st64{fill:#95D3E3;}
	.st65{fill:#603914;}
	.st66{fill:#EFC9AF;}
	.st67{fill:#D987B8;}
	.st68{fill:#8FC14D;}
	.st69{fill:#C69C6C;}
	.st70{fill:#2BADE1;}
	.st71{fill:#A4C958;}
	.st72{fill:#754D24;}
	.st73{fill:#35AE73;}
	.st74{fill:#E0B99E;}
	.st75{fill:#BDCCD4;}
	.st76{fill:#0C0D0D;}
	.st77{fill:#F4E152;}
	.st78{fill:#1E1911;}
	.st79{fill:#A1BD4F;}
	.st80{fill:#CBE6DC;}
	.st81{fill:#B5DCCE;}
	.st82{fill:#1F1D1B;}
	.st83{fill:#746458;}
	.st84{fill:#C7B29A;}
	.st85{fill:#998675;}
	.st86{fill:#428540;}
	.st87{fill:#E3E5E3;}
	.st88{fill:#161617;}
	.st89{fill:#1E1F1E;}
	.st90{fill:#474847;}
	.st91{fill:#191A19;}
	.st92{fill:#4B2C15;}
	.st93{fill:#92552A;}
	.st94{fill:#7EA847;}
	.st95{fill:#D59E2B;}
	.st96{fill:#807E79;}
	.st97{fill:#E5B744;}
	.st98{fill:#8EC045;}
	.st99{fill:#3B569A;}
	.st100{fill:#A1B7E0;}
	.st101{fill:#8FC9CC;}
	.st102{fill:#9ED1CA;}
	.st103{fill:#81AAA9;}
	.st104{fill:#E1783D;}
	.st105{fill:#64328A;}
	.st106{fill:#DEDEA5;}
	.st107{fill:#754997;}
	.st108{fill:#EE6F43;}
	.st109{fill:#A6CB67;}
	.st110{fill:#8FB7C0;}
	.st111{fill:#E2E1DF;}
	.st112{fill:#2C3E70;}
	.st113{fill:#D9BF96;}
	.st114{fill:#9C6941;}
	.st115{fill:#61605E;}
	.st116{fill:#9C9A99;}
	.st117{fill:#245F3D;}
	.st118{fill:#191713;}
	.st119{fill:#C39A62;}
	.st120{fill:#A17C4F;}
	.st121{fill:#F39200;}
	.st122{fill:#432918;}
	.st123{fill:#B17F4A;}
	.st124{fill:#FFCE1E;}
	.st125{fill:#BE1622;}
	.st126{fill:#3AAA35;}
	.st127{fill:#911825;}
	.st128{fill:#009FE3;}
	.st129{fill:#E94E1B;}
	.st130{fill:#FFCC03;}
	.st131{fill:#95C11F;}
	.st132{fill:#00A19A;}
	.st133{fill:#683C11;}
	.st134{fill:#878787;}
	.st135{fill:#634E42;}
	.st136{fill:#CBBBA0;}
	.st137{fill:#7B5B41;}
	.st138{fill:#493E36;}
	.st139{fill:#78A62C;}
	.st140{fill:#2C8535;}
	.st141{fill:#F9B233;}
	.st142{fill:none;}
	.st143{fill:#CA9E67;}
	.st144{fill:#E30613;}
	.st145{fill:#C6C6C6;}
	.st146{fill:#575756;}
	.st147{fill:#7B6A58;}
	.st148{fill:#A3C5D7;}
	.st149{fill:#332C25;}
	.st150{fill:#29235C;}
	.st151{fill:#E6332A;}
	.st152{fill:#738D93;}
	.st153{fill:#C87B31;}
	.st154{fill:#5BBCA7;}
	.st155{fill:#EF786F;}
	.st156{fill:#EE8D9E;}
	.st157{fill:#A74B56;}
	.st158{fill:#E72D7B;}
	.st159{fill:#E84138;}
	.st160{fill:#3B2315;}
	.st161{fill:#8EC044;}
	.st162{fill:#A1C74B;}
	.st163{fill:#231F20;}
	.st164{fill:#F6D9A7;}
	.st165{fill:#F4A5A6;}
	.st166{fill:#6E6F70;}
	.st167{fill:#F8AF41;}
	.st168{fill:#B79C19;}
	.st169{fill:#EFD101;}
	.st170{fill:#207A97;}
	.st171{fill:#20ACE3;}
	.st172{fill:#C51618;}
	.st173{fill:#C19446;}
	.st174{fill:#9E599F;}
	.st175{fill:#CD95C2;}
	.st176{fill:#F29A26;}
	.st177{fill:#FCCE8D;}
	.st178{fill:#F39B85;}
	.st179{fill:#E52628;}
	.st180{fill:#6BB52D;}
</style>
<g>
	<g>
		<g>
			<path class="st8" d="M127,258.7l-2.6,1.7c-5,3.2-11.7,1.7-14.8-3.3l-29.8-46.6c-3.2-5-1.7-11.7,3.3-14.8l2.6-1.7
				c5-3.2,11.7-1.7,14.8,3.3l29.8,46.6C133.5,248.8,132,255.5,127,258.7z"/>
			<path class="st8" d="M175.7,246.1l3.1,0.2c5.9,0.4,11-4.1,11.4-10l3.5-55.2c0.4-5.9-4.1-11-10-11.4l-3.1-0.2
				c-5.9-0.4-11,4.1-11.4,10l-3.5,55.2C165.3,240.6,169.8,245.7,175.7,246.1z"/>
		</g>
		<g>
			<path class="st45" d="M114.7,269.1c-7.2,5.2-42.6-50.5-48.1-63.2c-5.6-12.7-7.1-25.2-5.5-33.8c1.6-8.6,10.1-8.1,9,2.3
				c-1.1,10.4,1.5,16.9,16.2,42.1C117.8,263.3,120,265.2,114.7,269.1z"/>
			<path class="st45" d="M191.6,249.2c8.8,1.1,12.8-64.8,11.5-78.6s-6-25.5-11.6-32.3c-5.6-6.8-12.8-2.2-6.8,6.3s6.9,15.6,6.2,44.7
				C186.1,245.7,185.1,248.4,191.6,249.2z"/>
		</g>
		<path class="st8" d="M66.1,173.8c-10.9-0.3-2.3-53.2,47.5-66.1s84,28.1,74.6,33.4c-12.1,6.8-22.2-32.9-71.2-20.3
			S80.3,174.1,66.1,173.8z"/>
	</g>
	<g>
		<g>
			<path class="st45" d="M168.1,353.5l-2.7,0.1c-3.4,0.2-6.3-2.4-6.5-5.8l-1-18.4c-0.2-3.4,2.4-6.3,5.8-6.5l2.7-0.1
				c3.4-0.2,6.3,2.4,6.5,5.8l1,18.4C174.2,350.4,171.5,353.3,168.1,353.5z"/>
			<path class="st45" d="M324.5,355.6l-2.7-0.2c-3.4-0.3-5.9-3.3-5.7-6.7l1.5-18.4c0.3-3.4,3.3-5.9,6.7-5.7l2.7,0.2
				c3.4,0.3,5.9,3.3,5.7,6.7l-1.5,18.4C330.9,353.3,327.9,355.9,324.5,355.6z"/>
		</g>
		<path class="st42" d="M314.5,309.6c-1.9-1.2-3.7-2.1-5.3-2.6c-1.4-18.6-22.2-58.2-67.8-59.1c-45.7-1-59.3,38-58.9,56.5
			c-1.6,0.5-3.3,1.2-5.3,2.4c-12.3,8-12.9,13.6-10.6,36.3c1.9,12,3.1,21.3,14.4,21.5c11.3,0.2,18.9,1.6,16.8-29.8
			c-0.7-10.8-1.4-23-6.2-28.3c4.9-15.2,10-48.1,51.1-47.3c41.4,0.9,50.7,34.7,57,49.9c-4.6,5.3-5.8,17.1-7,27.6
			c-3.4,31.3,4.3,30.2,15.6,30.4s12.9-8.9,15.3-20.9C326.8,323.7,326.4,318.1,314.5,309.6z"/>
	</g>
	<g>
		<path class="st50" d="M367.8,148.9c9.1-7.4,5.1-67.3-51.1-81.6c-54.7-14-81.8,34.9-79,47.5l-4.6,18.4c-2.3,7.9-8.6,13.6-12.7,20.5
			c-1.7,2.9-2.9,6.1-0.9,9.2c1.7,2.7,4.6,4.9,7.2,6.9c-2,10.5,1.4,20.7,8.2,27.5l13.2-51.5c-8.5,2.4-15.9,8.9-19.5,17.8
			c-2-1.5-4-3.5-3.6-5.1c0.8-2.8,3.6-5.8,5.3-8.1c3.4-4.6,6.3-9.3,8.1-14.8c0.1-0.2,0.2-0.4,0.2-0.6l4.5-17.4
			c11.3-4.8,17.2-50.6,70.4-37c52,13.3,42.3,56.1,48.6,66.9l-4.6,18c-0.1,0.2-0.1,0.4-0.1,0.6c-1.1,5.7-0.8,11.2-0.1,16.9
			c0.4,2.8,1.4,6.8,0.8,9.6c-0.4,1.7-3.1,2.4-5.6,2.8c1.1-9.6-2.3-18.7-8.6-25l-13.2,51.5c9.3-2.6,17.1-10,20.4-20.1
			c3.3-0.5,6.8-1,9.6-2.5c3.2-1.8,3.7-5.1,3.6-8.5c-0.2-8-3-16.1-1.3-24.1L367.8,148.9z"/>
		<g>
			<g>
				<path class="st8" d="M259.6,145.4l-14.7,57.5c0,0.2-0.1,0.3-0.1,0.5c-0.9,2.7-3.8,4.2-6.6,3.5l0,0c-2.9-0.8-4.7-3.8-4-6.7
					l14.7-57.5c0.8-2.9,3.8-4.7,6.7-4l0,0c2.8,0.7,4.5,3.4,4.1,6.2C259.6,145.1,259.6,145.3,259.6,145.4z"/>
				<path class="st8" d="M334.1,164.5L319.4,222c0,0.2-0.1,0.3-0.1,0.5c-0.5,2.8,1.3,5.5,4.1,6.2l0,0c2.9,0.8,5.9-1,6.7-4l14.7-57.5
					c0.8-2.9-1-5.9-4-6.7l0,0c-2.8-0.7-5.6,0.8-6.6,3.5C334.2,164.2,334.2,164.3,334.1,164.5z"/>
			</g>
			<g>
				<circle class="st8" cx="235.7" cy="132.9" r="7.8"/>
				<circle class="st8" cx="361.1" cy="165" r="7.8"/>
			</g>
		</g>
	</g>
</g>
</svg>
