<svg height="337pt" viewBox="0 0 337 337" width="337pt" xmlns="http://www.w3.org/2000/svg"><path d="m326.269531 39.730469v256.539062c0 16.570313-13.429687 30-30 30h-256.539062c-16.570313 0-30-13.429687-30-30v-256.539062c0-16.570313 13.429687-30 30-30h256.539062c16.570313 0 30 13.429687 30 30zm-212.738281 204.648437 128.9375-76.378906-128.9375-76.378906zm0 0" fill="#00acea"/><path d="m242.46875 168-128.9375 76.378906v-152.757812zm0 0" fill="#00efd1"/><g fill="#083863"><path d="m247.566406 159.398438-128.9375-76.378907c-3.007812-1.832031-6.777344-1.863281-9.816406-.082031-3.0625 1.804688-4.90625 5.128906-4.8125 8.683594v152.757812c-.09375 3.558594 1.75 6.882813 4.8125 8.6875 1.46875.859375 3.136719 1.3125 4.835938 1.3125 1.773437 0 3.515624-.484375 5.035156-1.398437l128.917968-76.378907c3.035157-1.808593 4.894532-5.082031 4.886719-8.613281-.003906-3.535156-1.875-6.800781-4.917969-8.597656zm-123.566406 67.433593v-117.664062l99.320312 58.832031zm0 0"/><path d="m337 40c0-22.089844-17.910156-40-40-40h-257c-22.089844 0-40 17.910156-40 40v257c0 22.089844 17.910156 40 40 40h257c22.089844 0 40-17.910156 40-40zm-20 257c0 11.046875-8.953125 20-20 20h-257c-11.046875 0-20-8.953125-20-20v-257c0-11.046875 8.953125-20 20-20h257c11.046875 0 20 8.953125 20 20zm0 0"/></g></svg>